<svg xmlns="http://www.w3.org/2000/svg" xmlns:xlink="http://www.w3.org/1999/xlink" viewBox="0,0,256,256" width="48px" height="48px"><g fill="none" fill-rule="nonzero" stroke="none" stroke-width="none" stroke-linecap="butt" stroke-linejoin="none" stroke-miterlimit="10" stroke-dasharray="" stroke-dashoffset="0" font-family="none" font-weight="none" font-size="none" text-anchor="none" style="mix-blend-mode: normal"><path transform="scale(5.33333,5.33333)" d="M40.084,32.613c-0.00008,0.00018 -0.00017,0.00036 -0.00025,0.00054c0.00042,0.00015 0.00083,0.00031 0.00125,0.00046c-0.848,1.835 -1.254,2.655 -2.342,4.274c-1.521,2.263 -3.67,5.088 -6.326,5.109c-2.362,0.018 -2.971,-1.506 -6.176,-1.482c-3.204,0.015 -3.872,1.509 -6.237,1.484c-2.33412,-0.01935 -4.18945,-1.99093 -5.63744,-4.00191c-0.19877,-0.27593 -0.38989,-0.55261 -0.57356,-0.82509c-4.259,-6.34 -4.707,-13.768 -2.076,-17.721c1.861,-2.803 4.807,-4.449 7.572,-4.449c2.817,0 4.588,1.514 6.916,1.514c2.262,0 3.638,-1.517 6.896,-1.517c2.464,0 5.07,1.313 6.931,3.575c-2.51665,1.348 -3.82442,3.59066 -4.05845,5.91898c0.00782,-0.00466 0.01564,-0.00932 0.02345,-0.01398c-0.29354,2.78397 0.94589,5.69243 3.5005,7.34325c0.4828,0.31161 1.01215,0.5783 1.5865,0.79075zM24.092,14.997c-0.414,-2.17 0.649,-4.412 1.931,-5.922c1.414,-1.657 3.836,-2.937 5.905,-3.075c0.35,2.268 -0.613,4.495 -1.882,6.072c-1.357,1.692 -3.695,2.994 -5.954,2.925z" id="strokeMainSVG" fill="#fa551d" stroke="#fa551d" stroke-width="6" stroke-linejoin="round"></path><g transform="scale(5.33333,5.33333)" stroke="none" stroke-width="1" stroke-linejoin="miter"><path d="M40.084,32.613c-0.848,1.835 -1.254,2.655 -2.342,4.274c-1.521,2.264 -3.67,5.089 -6.326,5.109c-2.361,0.018 -2.971,-1.507 -6.176,-1.482c-3.204,0.016 -3.872,1.51 -6.237,1.484c-2.654,-0.022 -4.688,-2.568 -6.21,-4.826c-4.259,-6.34 -4.707,-13.768 -2.076,-17.721c1.861,-2.803 4.807,-4.449 7.572,-4.449c2.817,0 4.588,1.514 6.916,1.514c2.262,0 3.638,-1.517 6.896,-1.517c2.464,0 5.07,1.313 6.931,3.575c-6.09,3.262 -5.101,11.763 1.052,14.039z" fill="#fcfcfc"></path><path d="M30.046,12.072c1.269,-1.577 2.232,-3.804 1.882,-6.072c-2.069,0.138 -4.491,1.418 -5.905,3.075c-1.282,1.51 -2.345,3.752 -1.931,5.922c2.259,0.069 4.597,-1.233 5.954,-2.925z" fill="#fcfcfc"></path><path d="M34.997,24.479c-2.917,1.742 -6.582,2.915 -11.049,2.408c-6.502,-0.737 -11.579,0.85 -14.525,2.179c0.507,2.673 1.607,5.483 3.371,8.107c1.521,2.258 3.556,4.804 6.21,4.826c2.365,0.025 3.033,-1.469 6.237,-1.484c3.205,-0.024 3.814,1.5 6.176,1.482c2.656,-0.021 4.805,-2.846 6.326,-5.109c1.088,-1.619 1.494,-2.439 2.342,-4.274c-3.619,-1.339 -5.437,-4.825 -5.088,-8.135z" fill="#ffffff"></path></g></g></svg>