<svg xmlns="http://www.w3.org/2000/svg"  viewBox="0 0 120 120" width="60px" height="60px" baseProfile="basic"><rect width="106" height="4" x="7" y="96" opacity=".35"/><rect width="106" height="72" x="7" y="24" fill="#0075ff"/><path d="M77,39c-6.567,0-12.539,2.535-17,6.676C55.539,41.535,49.567,39,43,39c-13.807,0-25,11.193-25,25 s11.193,25,25,25c6.567,0,12.539-2.535,17-6.676C64.461,86.465,70.433,89,77,89c13.807,0,25-11.193,25-25S90.807,39,77,39z" opacity=".35"/><path fill="#ff1200" d="M52,60c0-7.24,3.081-13.758,8-18.324C55.539,37.535,49.567,35,43,35c-13.807,0-25,11.193-25,25 s11.193,25,25,25c6.567,0,12.539-2.535,17-6.676C55.081,73.758,52,67.24,52,60z"/><path fill="#ffc400" d="M77,35c-6.567,0-12.539,2.535-17,6.676C64.919,46.242,68,52.76,68,60s-3.081,13.758-8,18.324 C64.461,82.465,70.433,85,77,85c13.807,0,25-11.193,25-25S90.807,35,77,35z"/><path fill="#ff7500" d="M68,60c0-7.24-3.081-13.758-8-18.324C55.081,46.242,52,52.76,52,60s3.081,13.758,8,18.324 C64.919,73.758,68,67.24,68,60z"/></svg>