<svg xmlns="http://www.w3.org/2000/svg" xmlns:xlink="http://www.w3.org/1999/xlink" version="1.1" width="256" height="256" viewBox="0 0 256 256" xml:space="preserve">

<defs>
</defs>
<g style="stroke: none; stroke-width: 0; stroke-dasharray: none; stroke-linecap: butt; stroke-linejoin: miter; stroke-miterlimit: 10; fill: none; fill-rule: nonzero; opacity: 1;" transform="translate(1.4065934065934016 1.4065934065934016) scale(2.81 2.81)" >
	<path d="M 26.957 28.072 c 15.82 -0.84 31.64 -0.84 47.461 0" style="stroke: none; stroke-width: 1; stroke-dasharray: none; stroke-linecap: butt; stroke-linejoin: miter; stroke-miterlimit: 10; fill: rgb(0,0,0); fill-rule: nonzero; opacity: 1;" transform=" matrix(1 0 0 1 0 0) " stroke-linecap="round" />
	<path d="M 33.622 56.959 V 61.6 c 0 1.148 -0.931 2.079 -2.079 2.079 h -9.171 c -1.148 0 -2.079 -0.931 -2.079 -2.079 v -9.294" style="stroke: none; stroke-width: 1; stroke-dasharray: none; stroke-linecap: butt; stroke-linejoin: miter; stroke-miterlimit: 10; fill: rgb(122,122,122); fill-rule: nonzero; opacity: 1;" transform=" matrix(1 0 0 1 0 0) " stroke-linecap="round" />
	<path d="M 68.319 56.959 V 61.6 c 0 1.148 0.931 2.079 2.079 2.079 h 9.171 c 1.148 0 2.079 -0.931 2.079 -2.079 v -9.294" style="stroke: none; stroke-width: 1; stroke-dasharray: none; stroke-linecap: butt; stroke-linejoin: miter; stroke-miterlimit: 10; fill: rgb(122,122,122); fill-rule: nonzero; opacity: 1;" transform=" matrix(1 0 0 1 0 0) " stroke-linecap="round" />
	<path d="M 62.221 56.764 h 13.197 c 3.495 0 6.382 -2.731 6.575 -6.221 l 0.379 -6.862 c 0.245 -4.432 -1.365 -8.767 -4.444 -11.965 l -3.51 -3.645 l -4.146 -10.357 c -0.605 -1.512 -1.98 -2.592 -3.597 -2.783 c -10.659 -1.26 -21.318 -1.26 -31.976 0 c -1.617 0.191 -2.992 1.272 -3.597 2.783 l -4.146 10.357 l -3.51 3.645 c -3.079 3.198 -4.689 7.532 -4.444 11.965 l 0.379 6.862 l 0.776 6.221 H 62.221 z" style="stroke: none; stroke-width: 1; stroke-dasharray: none; stroke-linecap: butt; stroke-linejoin: miter; stroke-miterlimit: 10; fill: rgb(222,76,60); fill-rule: nonzero; opacity: 1;" transform=" matrix(1 0 0 1 0 0) " stroke-linecap="round" />
	<ellipse cx="28.570999999999998" cy="41.961" rx="5.741" ry="4.611" style="stroke: none; stroke-width: 1; stroke-dasharray: none; stroke-linecap: butt; stroke-linejoin: miter; stroke-miterlimit: 10; fill: rgb(135,206,217); fill-rule: nonzero; opacity: 1;" transform=" matrix(0.4559 -0.89 0.89 0.4559 -21.7973 48.261) "/>
	<ellipse cx="72.801" cy="41.961" rx="4.611" ry="5.741" style="stroke: none; stroke-width: 1; stroke-dasharray: none; stroke-linecap: butt; stroke-linejoin: miter; stroke-miterlimit: 10; fill: rgb(135,206,217); fill-rule: nonzero; opacity: 1;" transform=" matrix(0.89 -0.4559 0.4559 0.89 -11.123 37.8041) "/>
	<circle cx="18.965" cy="18.335" r="13.535" style="stroke: none; stroke-width: 1; stroke-dasharray: none; stroke-linecap: butt; stroke-linejoin: miter; stroke-miterlimit: 10; fill: rgb(253,182,47); fill-rule: nonzero; opacity: 1;" transform="  matrix(1 0 0 1 0 0) "/>
	<path d="M 74.418 28.072 l -4.146 -10.357 c -0.605 -1.512 -1.98 -2.592 -3.597 -2.783 c -10.659 -1.26 -21.318 -1.26 -31.976 0 c -1.617 0.191 -2.992 1.272 -3.597 2.783 l -4.146 10.357 l 0 0 C 42.777 27.232 58.597 27.232 74.418 28.072 L 74.418 28.072 z" style="stroke: none; stroke-width: 1; stroke-dasharray: none; stroke-linecap: butt; stroke-linejoin: miter; stroke-miterlimit: 10; fill: rgb(135,206,217); fill-rule: nonzero; opacity: 1;" transform=" matrix(1 0 0 1 0 0) " stroke-linecap="round" />
	<rect x="1" y="58.25" rx="0" ry="0" width="13.53" height="26.95" style="stroke: none; stroke-width: 1; stroke-dasharray: none; stroke-linecap: butt; stroke-linejoin: miter; stroke-miterlimit: 10; fill: rgb(67,152,209); fill-rule: nonzero; opacity: 1;" transform=" matrix(1 0 0 1 0 0) "/>
	<path d="M 88.813 65.847 c -0.63 -2.057 -2.689 -3.321 -4.807 -2.944 c -6.373 1.135 -14.088 3.499 -21.357 5.203 l -0.001 -0.001 l 0.001 0 c -0.371 -4.127 -3.759 -7.33 -7.9 -7.47 l -1.88 -0.063 c -6.139 0 -12.818 -4.463 -18.501 -4.463 c -4.996 0 -9.819 1.085 -15.128 5.724 c -0.672 0.587 -1.535 0.919 -2.427 0.912 l -1.823 -0.083 v 17.597 h 5.353 c 1.687 0 3.369 0.185 5.015 0.552 l 14.402 3.211 c 1.3 0.29 2.63 0.427 3.962 0.407 l 7.97 -0.116 c 2.234 -0.032 4.439 -0.503 6.492 -1.386 l 28.241 -11.927 C 88.419 70.145 89.448 67.923 88.813 65.847 z" style="stroke: none; stroke-width: 1; stroke-dasharray: none; stroke-linecap: butt; stroke-linejoin: miter; stroke-miterlimit: 10; fill: rgb(254,201,163); fill-rule: nonzero; opacity: 1;" transform=" matrix(1 0 0 1 0 0) " stroke-linecap="round" />
	<path d="M 62.647 69.106 c -0.512 0 -0.948 -0.391 -0.995 -0.91 c -0.325 -3.617 -3.308 -6.437 -6.938 -6.561 l -1.88 -0.063 c 0 0 -0.001 0 -0.002 0 c -3.267 0.001 -6.639 -1.195 -9.901 -2.353 c -3.059 -1.085 -5.949 -2.109 -8.563 -2.109 c -4.056 0 -8.946 0.65 -14.47 5.478 c -0.856 0.748 -1.943 1.159 -3.062 1.159 c -0.01 0 -0.02 0 -0.03 0 l -2.324 -0.105 c -0.551 -0.025 -0.979 -0.493 -0.953 -1.045 c 0.025 -0.552 0.499 -0.991 1.045 -0.953 l 2.285 0.104 c 0.65 0.011 1.228 -0.233 1.724 -0.666 c 6.021 -5.262 11.359 -5.972 15.786 -5.972 c 2.959 0 6.148 1.131 9.232 2.225 c 3.103 1.101 6.313 2.238 9.269 2.238 l 1.914 0.064 c 4.637 0.156 8.446 3.759 8.862 8.379 c 0.05 0.551 -0.356 1.036 -0.906 1.086 C 62.708 69.105 62.678 69.106 62.647 69.106 z" style="stroke: none; stroke-width: 1; stroke-dasharray: none; stroke-linecap: butt; stroke-linejoin: miter; stroke-miterlimit: 10; fill: rgb(0,0,0); fill-rule: nonzero; opacity: 1;" transform=" matrix(1 0 0 1 0 0) " stroke-linecap="round" />
	<path d="M 43.472 85.434 c -1.321 0 -2.642 -0.146 -3.931 -0.434 L 25.14 81.789 c -1.57 -0.35 -3.185 -0.527 -4.798 -0.527 h -5.814 c -0.552 0 -1 -0.447 -1 -1 c 0 -0.553 0.448 -1 1 -1 h 5.814 c 1.759 0 3.52 0.193 5.233 0.576 l 14.401 3.212 c 1.222 0.271 2.476 0.396 3.729 0.383 l 7.97 -0.116 c 2.113 -0.03 4.17 -0.47 6.111 -1.305 l 28.248 -11.93 c 1.522 -0.655 2.309 -2.351 1.821 -3.942 c -0.48 -1.572 -2.058 -2.539 -3.676 -2.252 c -3.897 0.694 -8.246 1.838 -12.85 3.049 c -12.497 3.287 -25.42 6.687 -31.22 1.367 c -0.407 -0.374 -0.435 -1.006 -0.061 -1.413 c 0.373 -0.407 1.005 -0.435 1.413 -0.062 c 4.995 4.582 17.937 1.177 29.359 -1.827 c 4.644 -1.221 9.03 -2.375 13.009 -3.083 c 2.605 -0.465 5.162 1.099 5.937 3.636 c 0.786 2.568 -0.481 5.307 -2.95 6.367 l -28.247 11.93 c -2.178 0.937 -4.489 1.431 -6.866 1.465 l -7.97 0.116 C 43.647 85.433 43.56 85.434 43.472 85.434 z" style="stroke: none; stroke-width: 1; stroke-dasharray: none; stroke-linecap: butt; stroke-linejoin: miter; stroke-miterlimit: 10; fill: rgb(0,0,0); fill-rule: nonzero; opacity: 1;" transform=" matrix(1 0 0 1 0 0) " stroke-linecap="round" />
	<path d="M 14.528 86.202 H 1 c -0.552 0 -1 -0.447 -1 -1 v -26.95 c 0 -0.553 0.448 -1 1 -1 h 13.527 c 0.552 0 1 0.447 1 1 v 26.95 C 15.528 85.755 15.08 86.202 14.528 86.202 z M 2 84.202 h 11.527 v -24.95 H 2 V 84.202 z" style="stroke: none; stroke-width: 1; stroke-dasharray: none; stroke-linecap: butt; stroke-linejoin: miter; stroke-miterlimit: 10; fill: rgb(0,0,0); fill-rule: nonzero; opacity: 1;" transform=" matrix(1 0 0 1 0 0) " stroke-linecap="round" />
	<path d="M 18.878 26.159 c -1.752 0 -3.404 -1.072 -4.055 -2.807 c -0.194 -0.517 0.068 -1.093 0.585 -1.288 c 0.517 -0.192 1.093 0.069 1.288 0.585 c 0.45 1.201 1.791 1.812 2.994 1.361 c 1.201 -0.45 1.812 -1.793 1.361 -2.994 c -0.258 -0.688 -0.812 -1.202 -1.522 -1.41 l -1.723 -0.629 c -1.257 -0.367 -2.289 -1.324 -2.77 -2.606 c -0.837 -2.233 0.298 -4.731 2.531 -5.569 c 1.081 -0.404 2.256 -0.366 3.309 0.112 c 1.052 0.479 1.855 1.337 2.261 2.419 c 0.194 0.517 -0.068 1.093 -0.585 1.288 c -0.516 0.192 -1.093 -0.068 -1.288 -0.585 c -0.218 -0.582 -0.649 -1.043 -1.215 -1.301 c -0.566 -0.258 -1.198 -0.279 -1.779 -0.06 c -0.582 0.218 -1.043 0.649 -1.3 1.215 s -0.278 1.197 -0.06 1.779 c 0.258 0.688 0.812 1.202 1.522 1.41 l 1.723 0.629 c 1.256 0.367 2.289 1.324 2.77 2.606 c 0.406 1.082 0.366 2.257 -0.112 3.309 c -0.479 1.052 -1.337 1.855 -2.419 2.261 C 19.893 26.07 19.381 26.159 18.878 26.159 z" style="stroke: none; stroke-width: 1; stroke-dasharray: none; stroke-linecap: butt; stroke-linejoin: miter; stroke-miterlimit: 10; fill: rgb(0,0,0); fill-rule: nonzero; opacity: 1;" transform=" matrix(1 0 0 1 0 0) " stroke-linecap="round" />
	<path d="M 18.979 12.531 c -0.552 0 -1 -0.448 -1 -1 V 9.673 c 0 -0.552 0.448 -1 1 -1 c 0.552 0 1 0.448 1 1 v 1.858 C 19.979 12.083 19.531 12.531 18.979 12.531 z" style="stroke: none; stroke-width: 1; stroke-dasharray: none; stroke-linecap: butt; stroke-linejoin: miter; stroke-miterlimit: 10; fill: rgb(0,0,0); fill-rule: nonzero; opacity: 1;" transform=" matrix(1 0 0 1 0 0) " stroke-linecap="round" />
	<path d="M 18.979 28.014 c -0.552 0 -1 -0.448 -1 -1 v -1.859 c 0 -0.552 0.448 -1 1 -1 c 0.552 0 1 0.448 1 1 v 1.859 C 19.979 27.566 19.531 28.014 18.979 28.014 z" style="stroke: none; stroke-width: 1; stroke-dasharray: none; stroke-linecap: butt; stroke-linejoin: miter; stroke-miterlimit: 10; fill: rgb(0,0,0); fill-rule: nonzero; opacity: 1;" transform=" matrix(1 0 0 1 0 0) " stroke-linecap="round" />
	<path d="M 74.419 29.072 c -0.018 0 -0.036 0 -0.054 -0.001 c -15.711 -0.834 -31.644 -0.834 -47.355 0 c -0.542 0.039 -1.022 -0.394 -1.052 -0.945 c -0.029 -0.552 0.394 -1.022 0.945 -1.052 c 15.782 -0.838 31.785 -0.838 47.567 0 c 0.552 0.029 0.976 0.5 0.946 1.052 C 75.388 28.659 74.946 29.072 74.419 29.072 z" style="stroke: none; stroke-width: 1; stroke-dasharray: none; stroke-linecap: butt; stroke-linejoin: miter; stroke-miterlimit: 10; fill: rgb(0,0,0); fill-rule: nonzero; opacity: 1;" transform=" matrix(1 0 0 1 0 0) " stroke-linecap="round" />
	<path d="M 63.65 49.281 H 37.725 c -0.552 0 -1 -0.447 -1 -1 s 0.448 -1 1 -1 H 63.65 c 0.553 0 1 0.447 1 1 S 64.203 49.281 63.65 49.281 z" style="stroke: none; stroke-width: 1; stroke-dasharray: none; stroke-linecap: butt; stroke-linejoin: miter; stroke-miterlimit: 10; fill: rgb(0,0,0); fill-rule: nonzero; opacity: 1;" transform=" matrix(1 0 0 1 0 0) " stroke-linecap="round" />
	<path d="M 79.569 64.679 h -9.171 c -1.698 0 -3.079 -1.381 -3.079 -3.079 v -4.641 c 0 -0.553 0.447 -1 1 -1 c 0.553 0 1 0.447 1 1 v 4.641 c 0 0.595 0.484 1.079 1.079 1.079 h 9.171 c 0.595 0 1.079 -0.484 1.079 -1.079 v -9.294 c 0 -0.553 0.447 -1 1 -1 c 0.553 0 1 0.447 1 1 v 9.294 C 82.648 63.298 81.267 64.679 79.569 64.679 z" style="stroke: none; stroke-width: 1; stroke-dasharray: none; stroke-linecap: butt; stroke-linejoin: miter; stroke-miterlimit: 10; fill: rgb(0,0,0); fill-rule: nonzero; opacity: 1;" transform=" matrix(1 0 0 1 0 0) " stroke-linecap="round" />
	<path d="M 59.662 43.931 h -17.95 c -0.552 0 -1 -0.448 -1 -1 s 0.448 -1 1 -1 h 17.95 c 0.553 0 1 0.448 1 1 S 60.215 43.931 59.662 43.931 z" style="stroke: none; stroke-width: 1; stroke-dasharray: none; stroke-linecap: butt; stroke-linejoin: miter; stroke-miterlimit: 10; fill: rgb(0,0,0); fill-rule: nonzero; opacity: 1;" transform=" matrix(1 0 0 1 0 0) " stroke-linecap="round" />
	<path d="M 27.697 48.48 c -0.758 0 -1.505 -0.167 -2.197 -0.522 c -1.371 -0.702 -2.315 -2.006 -2.659 -3.671 c -0.327 -1.584 -0.064 -3.32 0.738 -4.887 s 2.058 -2.793 3.534 -3.455 c 1.551 -0.693 3.162 -0.69 4.533 0.013 c 2.753 1.411 3.615 5.25 1.921 8.559 l 0 0 C 32.299 46.993 29.952 48.48 27.697 48.48 z M 29.432 37.431 c -0.486 0 -0.995 0.113 -1.501 0.34 c -1.062 0.476 -1.975 1.378 -2.571 2.541 s -0.794 2.431 -0.56 3.571 c 0.218 1.06 0.791 1.875 1.612 2.295 c 1.77 0.906 4.183 -0.247 5.375 -2.574 c 1.192 -2.327 0.72 -4.958 -1.053 -5.866 C 30.335 37.533 29.894 37.431 29.432 37.431 z M 32.678 44.061 h 0.01 H 32.678 z" style="stroke: none; stroke-width: 1; stroke-dasharray: none; stroke-linecap: butt; stroke-linejoin: miter; stroke-miterlimit: 10; fill: rgb(0,0,0); fill-rule: nonzero; opacity: 1;" transform=" matrix(1 0 0 1 0 0) " stroke-linecap="round" />
	<path d="M 73.662 48.488 c -0.764 0 -1.549 -0.172 -2.32 -0.518 c -1.477 -0.66 -2.732 -1.888 -3.534 -3.454 c -1.694 -3.309 -0.833 -7.148 1.92 -8.559 c 1.373 -0.703 2.98 -0.707 4.533 -0.013 c 1.477 0.661 2.732 1.888 3.534 3.455 c 1.694 3.309 0.833 7.148 -1.92 8.558 C 75.184 48.312 74.434 48.488 73.662 48.488 z M 71.942 37.431 c -0.462 0 -0.903 0.102 -1.303 0.307 c -1.772 0.908 -2.244 3.54 -1.053 5.866 c 0.596 1.163 1.509 2.065 2.571 2.541 c 0.987 0.442 1.983 0.451 2.805 0.033 c 1.772 -0.908 2.244 -3.54 1.053 -5.867 c -0.596 -1.163 -1.509 -2.065 -2.571 -2.541 C 72.937 37.544 72.429 37.431 71.942 37.431 z" style="stroke: none; stroke-width: 1; stroke-dasharray: none; stroke-linecap: butt; stroke-linejoin: miter; stroke-miterlimit: 10; fill: rgb(0,0,0); fill-rule: nonzero; opacity: 1;" transform=" matrix(1 0 0 1 0 0) " stroke-linecap="round" />
	<path d="M 75.418 57.765 H 62.221 c -0.553 0 -1 -0.447 -1 -1 s 0.447 -1 1 -1 h 13.197 c 2.963 0 5.413 -2.318 5.577 -5.277 l 0.379 -6.861 c 0.229 -4.141 -1.29 -8.228 -4.167 -11.216 l -3.51 -3.645 c -0.089 -0.093 -0.16 -0.203 -0.208 -0.322 l -4.145 -10.357 c -0.475 -1.187 -1.542 -2.015 -2.785 -2.162 c -10.531 -1.245 -21.211 -1.245 -31.742 0 c -1.243 0.146 -2.311 0.975 -2.786 2.162 l -4.145 10.357 c -0.048 0.12 -0.119 0.229 -0.208 0.322 l -3.51 3.645 c -2.876 2.987 -4.395 7.075 -4.166 11.216 l 0.379 6.861 c 0.03 0.552 -0.392 1.023 -0.943 1.054 c -0.546 0.031 -1.023 -0.392 -1.054 -0.942 l -0.379 -6.862 c -0.259 -4.694 1.462 -9.328 4.723 -12.714 l 3.374 -3.503 l 4.073 -10.176 c 0.748 -1.867 2.437 -3.172 4.408 -3.405 c 10.686 -1.264 21.524 -1.264 32.211 0 c 1.971 0.233 3.659 1.537 4.408 3.404 l 4.072 10.177 l 3.375 3.503 c 3.261 3.387 4.981 8.02 4.722 12.714 l -0.379 6.861 C 82.768 54.617 79.442 57.765 75.418 57.765 z" style="stroke: none; stroke-width: 1; stroke-dasharray: none; stroke-linecap: butt; stroke-linejoin: miter; stroke-miterlimit: 10; fill: rgb(0,0,0); fill-rule: nonzero; opacity: 1;" transform=" matrix(1 0 0 1 0 0) " stroke-linecap="round" />
	<path d="M 14.527 32.139 c -0.109 0 -0.22 -0.018 -0.329 -0.056 c -5.84 -2.032 -9.764 -7.554 -9.764 -13.74 c 0 -8.02 6.525 -14.545 14.545 -14.545 c 3.885 0 7.538 1.513 10.285 4.26 c 0.391 0.391 0.391 1.023 0 1.414 c -0.391 0.391 -1.023 0.391 -1.414 0 c -2.37 -2.37 -5.52 -3.674 -8.871 -3.674 c -6.917 0 -12.545 5.627 -12.545 12.545 c 0 5.336 3.384 10.099 8.421 11.851 c 0.521 0.181 0.797 0.751 0.616 1.273 C 15.327 31.88 14.94 32.139 14.527 32.139 z" style="stroke: none; stroke-width: 1; stroke-dasharray: none; stroke-linecap: butt; stroke-linejoin: miter; stroke-miterlimit: 10; fill: rgb(0,0,0); fill-rule: nonzero; opacity: 1;" transform=" matrix(1 0 0 1 0 0) " stroke-linecap="round" />
</g>
</svg>