<svg width="26" height="26" viewBox="0 0 26 26" fill="none" xmlns="http://www.w3.org/2000/svg">
<g clip-path="url(#clip0_34_2698)">
<path d="M13 0C10.4288 0 7.91543 0.762437 5.77759 2.1909C3.63975 3.61935 1.97351 5.64968 0.989572 8.02512C0.00563272 10.4006 -0.251811 13.0144 0.249797 15.5362C0.751405 18.0579 1.98953 20.3743 3.80762 22.1924C5.6257 24.0105 7.94208 25.2486 10.4638 25.7502C12.9856 26.2518 15.5995 25.9944 17.9749 25.0104C20.3503 24.0265 22.3806 22.3603 23.8091 20.2224C25.2376 18.0846 26 15.5712 26 13C25.9963 9.55333 24.6254 6.24889 22.1883 3.81173C19.7511 1.37456 16.4467 0.00372784 13 0ZM13 23.8333C10.8574 23.8333 8.76286 23.198 6.98133 22.0076C5.1998 20.8172 3.81126 19.1253 2.99131 17.1457C2.17136 15.1662 1.95683 12.988 2.37483 10.8865C2.79284 8.78506 3.82461 6.85475 5.33968 5.33968C6.85475 3.82461 8.78507 2.79283 10.8865 2.37483C12.988 1.95682 15.1662 2.17136 17.1457 2.99131C19.1253 3.81125 20.8172 5.19979 22.0076 6.98132C23.198 8.76286 23.8333 10.8574 23.8333 13C23.8302 15.8722 22.6878 18.6259 20.6568 20.6568C18.6259 22.6878 15.8722 23.8302 13 23.8333Z" fill="#091C62"/>
<path d="M13 5.41669C12.7126 5.41669 12.4371 5.53082 12.2339 5.73399C12.0308 5.93715 11.9166 6.2127 11.9166 6.50002V15.1667C11.9166 15.454 12.0308 15.7296 12.2339 15.9327C12.4371 16.1359 12.7126 16.25 13 16.25C13.2873 16.25 13.5628 16.1359 13.766 15.9327C13.9692 15.7296 14.0833 15.454 14.0833 15.1667V6.50002C14.0833 6.2127 13.9692 5.93715 13.766 5.73399C13.5628 5.53082 13.2873 5.41669 13 5.41669Z" fill="#091C62"/>
<path d="M14.0833 19.5C14.0833 18.9017 13.5983 18.4167 13 18.4167C12.4017 18.4167 11.9166 18.9017 11.9166 19.5C11.9166 20.0983 12.4017 20.5834 13 20.5834C13.5983 20.5834 14.0833 20.0983 14.0833 19.5Z" fill="#091C62"/>
</g>
<defs>
<clipPath id="clip0_34_2698">
<rect width="26" height="26" fill="white"/>
</clipPath>
</defs>
</svg>
